# xmcd CD database file
#
# Track frame offsets:
#	150
#	21292
#	45132
#	69617
#	90530
#	123002
#	148527
#	171790
#	197907
#	227597
#
# Disc length: 3386 seconds
#
# Revision: 0
# Processed by: cddbd v1.5.1PL0 Copyright (c) Steve Scherf et al.
# Submitted via: CDex 1.60beta1
#
DISCID=7a0d380a
DTITLE=SAJU - realizing-living
DYEAR=1998
DGENRE=New Age
TTITLE0=AIYA-LEIYA
TTITLE1=JING LING
TTITLE2=STILL SEARCHIN'
TTITLE3=FURUSATO
TTITLE4=ILLUSION
TTITLE5=LOVE IN VAIN
TTITLE6=CHRISTMAS EVE
TTITLE7=ONLY
TTITLE8=OUR EYES
TTITLE9=THE HAZY MOUNTAIN
EXTD=YEAR: 1998
EXTT0=
EXTT1=
EXTT2=
EXTT3=
EXTT4=
EXTT5=
EXTT6=
EXTT7=
EXTT8=
EXTT9=
PLAYORDER=
